<svg viewBox="0 0 32 32" color="#FF7548" xmlns="http://www.w3.org/2000/svg">
<path d="M23.0327 19.514L29.5769 26.0571C30.6069 24.6695 31.4287 23.1189 31.9974 21.4503L26.8119 16.2656L26.8145 16.2629L26.5507 15.9992L32 10.5507C31.4314 8.88215 30.6095 7.33151 29.5796 5.94257L23.0354 12.4857L23.0327 19.514Z" fill="currentColor"/>
<path d="M15.7464 26.8021L16.0102 26.5384L21.4648 31.9921C23.1324 31.4222 24.6819 30.5992 26.0684 29.5681L19.5229 23.0236H12.4935L5.93604 29.58C7.32388 30.6098 8.8761 31.4315 10.545 32.0001L15.7451 26.8008L15.7464 26.8021Z" fill="currentColor"/>
<path d="M8.98588 12.4861L2.42442 5.92566C1.39315 7.31196 0.569985 8.86127 0 10.5285L5.20807 15.7358L5.20542 15.7384L5.4692 16.0022L0.00132555 21.4718C0.571311 23.1391 1.3958 24.6884 2.42708 26.0747L8.98721 19.5156L8.98588 12.4861Z" fill="currentColor"/>
<path d="M12.4936 8.97913H19.523L26.0698 2.43331C24.6833 1.4022 23.1338 0.57917 21.4662 0.007952L16.2714 5.20193L16.2688 5.19928L16.005 5.46302L10.5424 0C8.87353 0.568568 7.32264 1.39027 5.93347 2.42006L12.4936 8.97913Z" fill="currentColor"/>
</svg>
